<?xml version="1.0" encoding="UTF-8"?>
<svg id="Layer_2" xmlns="http://www.w3.org/2000/svg" viewBox="0 0 21.65 43.13">
  <g id="punctuation">
    <g id="U_x2B_003F">
      <path id="U_x2B_003F-2" data-name="U_x2B_003F" d="M21.65,21.57c0,12.78-6.44,19.54-8.22,21.17-.28.25-.63.39-1.01.39h-6.81c-.45,0-.67-.53-.36-.85,2.24-2.23,7.73-8.9,7.73-20.71,0-5.4-1.15-9.73-2.61-13.05-.24-.54-.78-.88-1.37-.87h-.36v12.92c0,.55-.45,1-1,1H1C.45,21.56,0,21.12,0,20.56V1C0,.45.46,0,1.01,0h11.35c.41,0,.79.17,1.07.46,2.48,2.57,8.22,9.79,8.22,21.11Z"/>
    </g>
  </g>
</svg>