<?xml version="1.0" encoding="UTF-8"?>
<svg id="Layer_2" xmlns="http://www.w3.org/2000/svg" viewBox="0 0 47.01 43.13">
  <g id="letters">
    <g id="U_x2B_004B">
      <path id="U_x2B_004B-2" data-name="U_x2B_004B" d="M47.01,1v41.13c0,.55-.45,1-1,1h-6.62c-.55,0-1-.45-1-1v-15.25c0-.55-.45-1-1-1h-15.15c-.5,0-.97.25-1.25.67l-10.61,15.91c-.28.42-.75.67-1.25.67H.5c-.4,0-.64-.45-.42-.78l16.29-24.43c.28-.42.75-.67,1.25-.67h19.77c.55,0,1-.45,1-1V1c0-.55.45-1,1-1h6.62c.55,0,1,.45,1,1Z"/>
    </g>
  </g>
</svg>