<?xml version="1.0" encoding="UTF-8"?>
<svg id="Layer_2" xmlns="http://www.w3.org/2000/svg" viewBox="0 0 53.61 43.13">
  <g id="letters">
    <g id="U_x2B_004E">
      <path id="U_x2B_004E-2" data-name="U_x2B_004E" d="M53.61,1v41.13c0,.55-.45,1-1,1h-6.62c-.55,0-1-.45-1-1V9.63c0-.55-.45-1-1-1h-16.86c-.57,0-1.1.33-1.35.84L9.71,42.29c-.25.51-.77.84-1.35.84H.5c-.37,0-.61-.39-.45-.72L16.23,9.35c.16-.33-.08-.72-.45-.72H7.17c-.55,0-1-.45-1-1V1c0-.55.45-1,1-1h45.44c.55,0,1,.45,1,1Z"/>
    </g>
  </g>
</svg>