<?xml version="1.0" encoding="UTF-8"?>
<svg id="Layer_2" xmlns="http://www.w3.org/2000/svg" viewBox="0 0 54.78 43.13">
  <g id="letters">
    <g id="U_x2B_0064">
      <path id="U_x2B_0064-2" data-name="U_x2B_0064" d="M19.15,42.6L54.66.82c.28-.32.05-.82-.38-.82H8.54c-.4,0-.78.16-1.06.44L.15,7.77c-.31.31-.09.85.35.85h35.13c.43,0,.66.5.38.82l-6.22,7.31c-.28.34-.7.53-1.14.53h-15.8c-.4,0-.78.16-1.06.44l-7.31,7.31c-.31.31-.09.85.35.85h16.11c.43,0,.66.5.38.82l-13.25,15.58c-.28.32-.05.82.38.82h9.55c.44,0,.86-.19,1.14-.53Z"/>
    </g>
  </g>
</svg>