<?xml version="1.0" encoding="UTF-8"?>
<svg id="Layer_2" xmlns="http://www.w3.org/2000/svg" viewBox="0 0 60.11 43.1">
  <g id="letters">
    <g id="U_x2B_006A">
      <path id="U_x2B_006A-2" data-name="U_x2B_006A" d="M51.74,0c-.51,0-.97.27-1.26.69C41.06,14.87,12.92,17.08,2.16,17.26h-1.16c-.55,0-1,.45-1,1v6.62c0,.55.45,1,1,1h1.16v-.02c4.84,0,23.59-.32,38.71-5.56.41-.14.8.27.62.67l-5.69,12.65c-.24.54-.78.88-1.37.88H1c-.55,0-1,.45-1,1v6.6c0,.55.45,1,1,1h38.93c.59,0,1.12-.34,1.37-.88l13.31-29.39,4.45-9.91,1-2.21c.15-.33-.09-.71-.46-.71h-7.87Z"/>
    </g>
  </g>
</svg>