<?xml version="1.0" encoding="UTF-8"?>
<svg id="Layer_2" xmlns="http://www.w3.org/2000/svg" viewBox="0 0 40.97 43.13">
  <g id="numbers">
    <g id="U_x2B_0035">
      <g id="U_x2B_0035-2" data-name="U_x2B_0035">
        <path d="M40.97,42.13v-21.72c0-.55-.45-1-1-1H1C.45,19.41,0,19.86,0,20.41v6.63C0,27.59.45,28.03,1,28.03h30.35c.55,0,1,.45,1,1v4.47c0,.55-.45,1-1,1H1C.45,34.5,0,34.95,0,35.5v6.63c0,.55.45,1,1,1h38.97c.55,0,1-.45,1-1Z"/>
        <rect x="0" y="0" width="40.97" height="8.63" rx="1" ry="1"/>
      </g>
    </g>
  </g>
</svg>