<?xml version="1.0" encoding="UTF-8"?>
<svg id="Layer_2" xmlns="http://www.w3.org/2000/svg" viewBox="0 0 60.38 43.13">
  <g id="letters">
    <g id="U_x2B_0054">
      <path id="U_x2B_0054-2" data-name="U_x2B_0054" d="M60.38,42.13V1c0-.55-.45-1-1-1H1C.45,0,0,.45,0,1v41.13c0,.55.45,1,1,1h58.38c.55,0,1-.45,1-1ZM8.63,33.5v-6.63c0-.55.45-1,1-1h23.88c.55,0,1-.45,1-1v-6.63c0-.55-.45-1-1-1H9.63c-.55,0-1-.45-1-1v-6.63c0-.55.45-1,1-1h41.13c.55,0,1,.45,1,1v23.88c0,.55-.45,1-1,1H9.63c-.55,0-1-.45-1-1Z"/>
    </g>
  </g>
</svg>