<?xml version="1.0" encoding="UTF-8"?>
<svg id="Layer_2" xmlns="http://www.w3.org/2000/svg" viewBox="0 0 12.94 33.37">
  <g id="punctuation">
    <g id="U_x2B_0021">
      <g id="U_x2B_0021-2" data-name="U_x2B_0021">
        <path d="M12.12,15.21L.54,24.86c-.34.28-.54.71-.54,1.15v6.86c0,.42.49.66.82.38l11.58-9.65c.34-.28.54-.71.54-1.15v-6.86c0-.42-.49-.66-.82-.38Z"/>
        <path d="M12.12.12L.54,9.77c-.34.28-.54.71-.54,1.15v6.86c0,.42.49.66.82.38l11.58-9.65c.34-.28.54-.71.54-1.15V.5c0-.42-.49-.66-.82-.38Z"/>
      </g>
    </g>
  </g>
</svg>