<?xml version="1.0" encoding="UTF-8"?>
<svg id="Layer_2" xmlns="http://www.w3.org/2000/svg" viewBox="0 0 68.64 43.12">
  <g id="letters">
    <g id="U_x2B_0045">
      <g id="U_x2B_0045-2" data-name="U_x2B_0045">
        <path d="M65.59,35.12l-1.78,6.88c-.17.66-.77,1.12-1.45,1.12H6.28c-.68,0-1.28-.46-1.45-1.12l-1.78-6.88c-.08-.32.16-.63.48-.63h61.58c.33,0,.57.31.48.63Z"/>
        <path d="M68.61,23.42l-1.69,6.52c-.14.55-.71.88-1.25.71-11.67-3.55-18.05-13.27-21.53-21.15-.24-.55-.77-.9-1.37-.9h-16.9c-.6,0-1.13.35-1.37.9-3.47,7.88-9.86,17.6-21.53,21.15-.54.16-1.11-.17-1.25-.71L.03,23.42c-.12-.48.13-.97.58-1.16C11.52,17.47,17.19,5.61,18.89.97c.22-.59.78-.97,1.4-.97h28.05c.63,0,1.19.38,1.4.97,1.7,4.64,7.37,16.5,18.28,21.28.45.2.7.69.58,1.16Z"/>
      </g>
    </g>
  </g>
</svg>