<?xml version="1.0" encoding="UTF-8"?>
<svg id="Layer_2" xmlns="http://www.w3.org/2000/svg" viewBox="0 0 67.59 43.13">
  <g id="letters">
    <g id="U_x2B_0062">
      <g id="U_x2B_0062-2" data-name="U_x2B_0062">
        <path d="M.15,31.04l11.65,11.65c.28.28.66.44,1.06.44h41.89c.4,0,.78-.16,1.06-.44l11.65-11.65c.31-.31.09-.85-.35-.85h-11.11c-.4,0-.78.16-1.06.44l-3.43,3.43c-.28.28-.66.44-1.06.44H17.17c-.4,0-.78-.16-1.06-.44l-3.43-3.43c-.28-.28-.66-.44-1.06-.44H.5c-.45,0-.67.54-.35.85Z"/>
        <rect x="20.86" y="17.25" width="25.88" height="8.63" rx="1" ry="1"/>
        <path d="M.15,12.08L11.79.44c.28-.28.66-.44,1.06-.44h41.89c.4,0,.78.16,1.06.44l11.65,11.65c.31.31.09.85-.35.85h-11.11c-.4,0-.78-.16-1.06-.44l-3.43-3.43c-.28-.28-.66-.44-1.06-.44H17.17c-.4,0-.78.16-1.06.44l-3.43,3.43c-.28.28-.66.44-1.06.44H.5c-.45,0-.67-.54-.35-.85Z"/>
      </g>
    </g>
  </g>
</svg>