<?xml version="1.0" encoding="UTF-8"?>
<svg id="Layer_2" xmlns="http://www.w3.org/2000/svg" viewBox="0 0 81.64 43.13">
  <g id="letters">
    <g id="U_x2B_0053">
      <g id="U_x2B_0053-2" data-name="U_x2B_0053">
        <path d="M81.59.72l-20.79,41.58c-.25.51-.77.83-1.34.83H16.09c-.55,0-1-.45-1-1v-10.94c0-.55.45-1,1-1h6.63c.55,0,1,.45,1,1v2.32c0,.55.45,1,1,1h29.4c.57,0,1.09-.32,1.34-.83l12.16-24.33c.17-.33-.08-.72-.45-.72H24.72c-.55,0-1,.45-1,1v2.31c0,.55-.45,1-1,1h-6.63c-.55,0-1-.45-1-1V1c0-.55.45-1,1-1h65.05c.37,0,.61.39.45.72Z"/>
        <rect y="30.19" width="8.63" height="12.94" rx="1" ry="1"/>
        <rect width="8.63" height="12.94" rx="1" ry="1"/>
      </g>
    </g>
  </g>
</svg>