<?xml version="1.0" encoding="UTF-8"?>
<svg id="Layer_2" xmlns="http://www.w3.org/2000/svg" viewBox="0 0 43.13 43.13">
  <g id="numbers">
    <g id="U_x2B_0036">
      <g id="U_x2B_0036-2" data-name="U_x2B_0036">
        <path d="M43.13,42.13v-26.03c0-.55-.45-1-1-1H1C.45,15.09,0,15.54,0,16.09v26.03c0,.55.45,1,1,1h41.13c.55,0,1-.45,1-1ZM8.63,33.5v-8.78c0-.55.45-1,1-1h23.88c.55,0,1,.45,1,1v8.78c0,.55-.45,1-1,1H9.63c-.55,0-1-.45-1-1Z"/>
        <rect x="0" y="0" width="43" height="8.63" rx="1" ry="1"/>
      </g>
    </g>
  </g>
</svg>