<?xml version="1.0" encoding="UTF-8"?>
<svg id="Layer_2" xmlns="http://www.w3.org/2000/svg" viewBox="0 0 67.62 43.13">
  <g id="letters">
    <g id="U_x2B_0061">
      <g id="U_x2B_0061-2" data-name="U_x2B_0061">
        <path d="M0,42.13v-15.25c0-.55.45-1,1-1h37.42c.26,0,.52.07.74.2l28.21,16.12c.45.25.26.93-.25.93h-15.11c-.26,0-.52-.07-.74-.2l-14.4-8.23c-.23-.13-.48-.2-.74-.2H9.63c-.55,0-1,.45-1,1v6.63c0,.55-.45,1-1,1H1c-.55,0-1-.45-1-1Z"/>
        <path d="M0,1v15.25c0,.55.45,1,1,1h37.42c.26,0,.52-.07.74-.2L67.37.93c.45-.25.26-.93-.25-.93h-15.11c-.26,0-.52.07-.74.2l-14.4,8.23c-.23.13-.48.2-.74.2H9.63c-.55,0-1-.45-1-1V1c0-.55-.45-1-1-1H1C.45,0,0,.45,0,1Z"/>
      </g>
    </g>
  </g>
</svg>