<?xml version="1.0" encoding="UTF-8"?>
<svg id="Layer_2" xmlns="http://www.w3.org/2000/svg" viewBox="0 0 62.42 43.13">
  <g id="letters">
    <g id="U_x2B_006E">
      <path id="U_x2B_006E-2" data-name="U_x2B_006E" d="M61.91,43.12h-8.11c-.55,0-1.05-.29-1.31-.77l-16.93-30.77c-.19-.35-.69-.35-.88,0l-16.92,30.77c-.26.48-.77.78-1.31.78h-7.15c-.41,0-.79-.16-1.08-.45C5.74,40.1,0,32.88,0,21.56,0,8.78,6.44,2.02,8.22.39,8.5.14,8.85,0,9.23,0h6.81c.45,0,.67.53.36.85-2.24,2.23-7.73,8.9-7.73,20.71,0,5.38,1.14,9.7,2.6,13.01.17.38.7.41.9.05L30.2,1.83l.58-1.06C31.04.3,31.55,0,32.1,0h6.05c.55,0,1.05.3,1.31.78l.58,1.05,22.31,40.56c.18.33-.06.74-.44.74Z"/>
    </g>
  </g>
</svg>