<?xml version="1.0" encoding="UTF-8"?>
<svg id="Layer_2" xmlns="http://www.w3.org/2000/svg" viewBox="0 0 42.98 43.12">
  <g id="letters">
    <g id="U_x2B_006D">
      <path id="U_x2B_006D-2" data-name="U_x2B_006D" d="M42.46,29.87l-5.8-3.19c-.48-.27-1.09-.09-1.36.39l-3.66,6.65c-.26.48-.77.78-1.31.78h-15.24c-.38,0-.62-.41-.44-.74l13.4-24.36c.26-.48.77-.78,1.31-.78h8.11c.55,0,1-.45,1-1V1c0-.55-.45-1-1-1h-13.21c-.55,0-1.05.3-1.31.78L.06,42.38c-.18.33.06.74.44.74h34.93c.55,0,1.05-.3,1.31-.78l6.11-11.12c.27-.48.09-1.09-.39-1.36Z"/>
    </g>
  </g>
</svg>