<?xml version="1.0" encoding="UTF-8"?>
<svg id="Layer_2" xmlns="http://www.w3.org/2000/svg" viewBox="0 0 43.11 43.11">
  <g id="numbers">
    <g id="U_x2B_0033">
      <g id="U_x2B_0033-2" data-name="U_x2B_0033">
        <rect x="0" y="17.23" width="28.03" height="8.63" rx="1" ry="1"/>
        <path d="M43.11,42.11V1c0-.55-.45-1-1-1H1C.45,0,0,.45,0,1v6.63c0,.55.45,1,1,1h32.48c.55,0,1,.45,1,1v23.86c0,.55-.45,1-1,1H1c-.55,0-1,.45-1,1v6.63c0,.55.45,1,1,1h41.11c.55,0,1-.45,1-1Z"/>
      </g>
    </g>
  </g>
</svg>