<?xml version="1.0" encoding="UTF-8"?>
<svg id="Layer_2" xmlns="http://www.w3.org/2000/svg" viewBox="0 0 62.57 43.12">
  <g id="letters">
    <g id="U_x2B_0074">
      <path id="U_x2B_0074-2" data-name="U_x2B_0074" d="M50.63,21.99l-14.18,14.18c-.31.31-.85.09-.85-.35V1c0-.55-.45-1-1-1h-6.63c-.55,0-1,.45-1,1v34.81c0,.45-.54.67-.86.35l-14.18-14.18c-.28-.28-.66-.44-1.06-.44H.5c-.45,0-.67.54-.35.85l20.31,20.27c.28.28.66.44,1.06.44h19.57c.4,0,.78-.15,1.06-.43l20.28-20.28c.31-.31.09-.85-.35-.85h-10.37c-.4,0-.78.16-1.06.44Z"/>
    </g>
  </g>
</svg>