<?xml version="1.0" encoding="UTF-8"?>
<svg id="Layer_2" xmlns="http://www.w3.org/2000/svg" viewBox="0 0 62.23 43.13">
  <g id="letters">
    <g id="U_x2B_0065">
      <path id="U_x2B_0065-2" data-name="U_x2B_0065" d="M.5,0h7.91c.57,0,1.09.32,1.34.83l15.37,30.74c.18.37.71.37.89,0L41.34.92c.25-.51.77-.83,1.34-.83h18.54c.55,0,1,.45,1,1v6.54c0,.55-.45,1-1,1h-2.31c-.55,0-1,.45-1,1v32.5c0,.55-.45,1-1,1h-6.63c-.55,0-1-.45-1-1V9.11c0-.28-.22-.5-.5-.5h-.73c-.57,0-1.09.32-1.34.83l-16.42,32.86c-.25.51-.77.83-1.34.83h-6.77c-.57,0-1.09-.32-1.34-.83L.05.72c-.17-.33.08-.72.45-.72Z"/>
    </g>
  </g>
</svg>