<?xml version="1.0" encoding="UTF-8"?>
<svg id="Layer_2" xmlns="http://www.w3.org/2000/svg" viewBox="0 0 49.02 43.13">
  <g id="punctuation">
    <g id="U_x2B_0024">
      <path id="U_x2B_0024-2" data-name="U_x2B_0024" d="M17.25,7.62V1c0-.55-.45-1-1-1h-2.31c-.55,0-1,.45-1,1v6.62c0,.55-.45,1-1,1h-2.31c-.55,0-1-.45-1-1V1c0-.55-.45-1-1-1h-2.31c-.55,0-1,.45-1,1v6.62c0,.55-.45,1-1,1H1c-.55,0-1,.45-1,1v6.63c0,.55.45,1,1,1h2.31c.55,0,1,.45,1,1v6.63c0,.55.45,1,1,1h2.31c.55,0,1-.45,1-1v-6.63c0-.55.45-1,1-1h2.31c.55,0,1,.45,1,1v6.63c0,.55.45,1,1,1h2.31c.55,0,1-.45,1-1v-6.63c0-.55.45-1,1-1h11.61c.43,0,.66.5.38.82l-20.6,24.23c-.28.32-.05.82.38.82h9.55c.44,0,.86-.19,1.14-.53L48.9,9.45c.28-.32.05-.82-.38-.82h-30.27c-.55,0-1-.45-1-1Z"/>
    </g>
  </g>
</svg>