<?xml version="1.0" encoding="UTF-8"?>
<svg id="Layer_2" xmlns="http://www.w3.org/2000/svg" viewBox="0 0 63.17 43.12">
  <g id="letters">
    <g id="U_x2B_0073">
      <g id="U_x2B_0073-2" data-name="U_x2B_0073">
        <rect x="0" y="28.06" width="37.9" height="8.63" rx="1" ry="1" transform="translate(12.73 -4.62) rotate(20.8)"/>
        <path d="M63.17,1v41.12c0,.55-.45,1-1,1h-9.16c-.4,0-.78-.16-1.06-.44L10.12.85c-.32-.31-.09-.85.35-.85h10.37c.4,0,.78.16,1.06.44l31.79,31.78c.32.31.85.09.85-.35V1c0-.55.45-1,1-1h6.63c.55,0,1,.45,1,1Z"/>
      </g>
    </g>
  </g>
</svg>