<?xml version="1.0" encoding="UTF-8"?>
<svg id="Layer_2" xmlns="http://www.w3.org/2000/svg" viewBox="0 0 53.91 43.13">
  <g id="letters">
    <g id="U_x2B_007A">
      <path id="U_x2B_007A-2" data-name="U_x2B_007A" d="M53.91,1v41.13c0,.55-.45,1-1,1H1c-.55,0-1-.45-1-1v-10.94c0-.55.45-1,1-1h6.62c.55,0,1,.45,1,1v2.31c0,.55.45,1,1,1h34.66c.55,0,1-.45,1-1v-15.16c0-.55-.45-1-1-1h-18.61c-.4,0-.78.16-1.06.44l-5.51,5.5c-.28.28-.66.44-1.06.44H7.67c-.45,0-.67-.54-.35-.85l13.73-13.72c.28-.28.66-.44,1.06-.44h22.18c.55,0,1-.45,1-1V1c0-.55.45-1,1-1h6.63c.55,0,1,.45,1,1Z"/>
    </g>
  </g>
</svg>