<?xml version="1.0" encoding="UTF-8"?>
<svg id="Layer_2" xmlns="http://www.w3.org/2000/svg" viewBox="0 0 53.05 43.13">
  <g id="letters">
    <g id="U_x2B_0078">
      <path id="U_x2B_0078-2" data-name="U_x2B_0078" d="M31.04,0h-9.01c-.55,0-1.05.3-1.31.78L.12,38.11c-.27.48-.09,1.09.39,1.36l6.31,3.47c.22.12.47.19.72.19h37.97c.25,0,.5-.06.72-.19l6.3-3.47c.48-.27.66-.87.39-1.36L32.35.78c-.26-.48-.77-.78-1.31-.78ZM12.37,33.77l13.72-24.88c.19-.34.69-.34.88,0l13.72,24.88c.18.33-.06.74-.44.74H12.81c-.38,0-.62-.41-.44-.74Z"/>
    </g>
  </g>
</svg>