<?xml version="1.0" encoding="UTF-8"?>
<svg id="Layer_2" xmlns="http://www.w3.org/2000/svg" viewBox="0 0 60.38 43.13">
  <g id="letters">
    <g id="U_x2B_0075">
      <path id="U_x2B_0075-2" data-name="U_x2B_0075" d="M0,1v41.13c0,.55.45,1,1,1h58.38c.55,0,1-.45,1-1V1c0-.55-.45-1-1-1h-24.26c-.4,0-.78.16-1.06.44l-15.96,15.96c-.31.31-.09.85.35.85h10.38c.4,0,.78-.16,1.06-.44l7.73-7.73c.28-.28.66-.44,1.06-.44h12.09c.55,0,1,.45,1,1l-.02,23.86c0,.55-.45,1-1,1H9.64c-.55,0-1-.45-1-1V1c-.01-.55-.46-1-1.01-1H1C.45,0,0,.45,0,1Z"/>
    </g>
  </g>
</svg>