<?xml version="1.0" encoding="UTF-8"?>
<svg id="Layer_2" xmlns="http://www.w3.org/2000/svg" viewBox="0 0 60.38 43.13">
  <g id="letters">
    <g id="U_x2B_0041">
      <path id="U_x2B_0041-2" data-name="U_x2B_0041" d="M60.38,1v41.13c0,.55-.45,1-1,1H1c-.55,0-1-.45-1-1v-15.25c0-.55.45-1,1-1h6.63c.55,0,1,.45,1,1v6.63c0,.55.45,1,1,1h41.12c.55,0,1-.45,1-1v-6.63c0-.55-.45-1-1-1h-23.87c-.55,0-1-.45-1-1v-6.63c0-.55.45-1,1-1h23.87c.55,0,1-.45,1-1v-6.62c0-.55-.45-1-1-1H9.63c-.55,0-1,.45-1,1v6.62c0,.55-.45,1-1,1H1c-.55,0-1-.45-1-1V1C0,.45.45,0,1,0h58.38c.55,0,1,.45,1,1Z"/>
    </g>
  </g>
</svg>