<?xml version="1.0" encoding="UTF-8"?>
<svg id="Layer_2" xmlns="http://www.w3.org/2000/svg" viewBox="0 0 43.13 43.13">
  <g id="numbers">
    <g id="U_x2B_0038">
      <path id="U_x2B_0038-2" data-name="U_x2B_0038" d="M42.13,0H1C.45,0,0,.45,0,1v41.13c0,.55.45,1,1,1h41.13c.55,0,1-.45,1-1V1c0-.55-.45-1-1-1ZM34.5,9.63v6.58c0,.55-.45,1-1,1H9.63c-.55,0-1-.45-1-1v-6.58c0-.55.45-1,1-1h23.88c.55,0,1,.45,1,1ZM33.5,34.5H9.63c-.55,0-1-.45-1-1v-6.68c0-.55.45-1,1-1h23.88c.55,0,1,.45,1,1v6.68c0,.55-.45,1-1,1Z"/>
    </g>
  </g>
</svg>