<?xml version="1.0" encoding="UTF-8"?>
<svg id="Layer_2" xmlns="http://www.w3.org/2000/svg" viewBox="0 0 60.07 43.12">
  <g id="letters">
    <g id="U_x2B_006F">
      <path id="U_x2B_006F-2" data-name="U_x2B_006F" d="M45.53.9c-.24-.55-.78-.9-1.37-.9H15.91c-.6,0-1.14.35-1.37.9L.13,33.85c-.18.41-.17.88.03,1.28l3.61,7.16c.25.51.77.83,1.34.83h49.85c.57,0,1.08-.32,1.34-.83l3.61-7.16c.2-.4.21-.87.03-1.28L45.53.9ZM9.56,33.8l10.63-24.28c.24-.55.78-.9,1.37-.9h16.94c.6,0,1.14.35,1.37.9l10.62,24.28c.14.33-.1.7-.46.7H10.02c-.36,0-.6-.37-.46-.7Z"/>
    </g>
  </g>
</svg>