<?xml version="1.0" encoding="UTF-8"?>
<svg id="Layer_2" xmlns="http://www.w3.org/2000/svg" viewBox="0 0 42.65 43.12">
  <g id="letters">
    <g id="U_x2B_0070">
      <path id="U_x2B_0070-2" data-name="U_x2B_0070" d="M42.65,1.02v41.1c0,.55-.45,1-1,1H6.87c-.54,0-1.04-.29-1.3-.76-1.25-2.25-2.58-5.06-3.59-7.86-.79-2.16-1.4-4.33-1.65-6.26C-.87,19.2,1.18,9.3,7.69.6,7.98.22,8.43,0,8.9,0h13.34c.55,0,1,.45,1,1v10.94c0,.55-.45,1-1,1h-6.63c-.55,0-1-.45-1-1v-2.31c0-.55-.45-1-1-1h-.94c-.61,0-1.17.37-1.4.93-2.47,6.2-3.13,12.63-2.33,18.68.21,1.63.68,3.43,1.3,5.26.2.6.78,1,1.42,1h21.37c.55,0,1-.45,1-1V1.02c0-.55.45-1,1-1h6.63c.55,0,1,.45,1,1Z"/>
    </g>
  </g>
</svg>