<?xml version="1.0" encoding="UTF-8"?>
<svg id="Layer_2" xmlns="http://www.w3.org/2000/svg" viewBox="0 0 62.19 43.13">
  <g id="letters">
    <g id="U_x2B_0067">
      <path id="U_x2B_0067-2" data-name="U_x2B_0067" d="M0,1v41.13c0,.55.45,1,1,1h36.93c.55,0,1.05-.3,1.31-.78L62.13.74c.18-.33-.06-.74-.44-.74H18.25c-.55,0-1,.45-1,1v10.94c0,.55.45,1,1,1h6.63c.55,0,1-.45,1-1v-2.31c0-.55.45-1,1-1h19.37c.76,0,1.24.82.88,1.48l-12.98,23.62c-.26.48-.77.78-1.31.78H9.63c-.55,0-1-.45-1-1V1c0-.55-.45-1-1-1H1C.45,0,0,.45,0,1Z"/>
    </g>
  </g>
</svg>