<?xml version="1.0" encoding="UTF-8"?>
<svg id="Layer_2" xmlns="http://www.w3.org/2000/svg" viewBox="0 0 61.52 43.13">
  <g id="letters">
    <g id="U_x2B_0079">
      <path id="U_x2B_0079-2" data-name="U_x2B_0079" d="M61.45.75l-24.03,41.63c-.27.46-.76.75-1.3.75h-10.72c-.54,0-1.03-.29-1.3-.75L.07.75c-.19-.33.05-.75.43-.75h23.17c.54,0,1.03.29,1.3.75l9.09,15.75c.19.33-.05.75-.43.75h-8.23c-.54,0-1.03-.29-1.3-.75l-6.6-11.43c-.27-.46-.76-.75-1.3-.75h-3.25c-.38,0-.63.42-.43.75l17.81,30.84c.19.33.67.33.87,0L51.49.75c.27-.46.76-.75,1.3-.75h8.23c.38,0,.63.42.43.75Z"/>
    </g>
  </g>
</svg>