<?xml version="1.0" encoding="UTF-8"?>
<svg id="Layer_2" xmlns="http://www.w3.org/2000/svg" viewBox="0 0 64.74 43.13">
  <g id="letters">
    <g id="U_x2B_0066">
      <path id="U_x2B_0066-2" data-name="U_x2B_0066" d="M64.74,7.69V.79c0-.37-.39-.61-.73-.44-8.27,4.3-17.41,7.14-26.15,9.02-.62.13-1.21-.35-1.21-.98V1c0-.55-.45-1-1-1h-6.63c-.55,0-1,.45-1,1v9.27c0,.5-.37.92-.86.99-12.64,1.79-22.97,1.74-26.15,1.67-.56-.01-1.01.44-1.01,1v28.19c0,.55.45,1,1,1h62.74c.55,0,1-.45,1-1v-6.63c0-.55-.45-1-1-1h-26.08c-.55,0-1-.45-1-1v-14.44c0-.47.33-.88.79-.97,8.83-1.87,18.1-4.72,26.48-9.06.5-.26.81-.78.81-1.34ZM27.03,34.5H9.63c-.55,0-1-.45-1-1v-11.04c0-.54.42-.98.96-1,4.64-.18,10.64-.61,17.3-1.53.6-.08,1.14.38,1.14.98,0,2.8,0,9.95,0,12.59,0,.55-.45,1-1,1Z"/>
    </g>
  </g>
</svg>