<?xml version="1.0" encoding="UTF-8"?>
<svg id="Layer_2" xmlns="http://www.w3.org/2000/svg" viewBox="0 0 40.97 43.13">
  <g id="numbers">
    <g id="U_x2B_0032">
      <g id="U_x2B_0032-2" data-name="U_x2B_0032">
        <rect x="0" y="34.5" width="40.97" height="8.63" rx="1" ry="1"/>
        <path d="M40.97,1.68v-.68C40.97.45,40.52,0,39.97,0H1C.45,0,0,.45,0,1v6.63c0,.55.45,1,1,1h30.35c.55,0,1,.45,1,1v4.47c0,.55-.45,1-1,1H1C.45,15.1,0,15.54,0,16.1v6.63c0,.55.45,1,1,1h38.97c.55,0,1-.45,1-1V1.68s0,0,0,0Z"/>
      </g>
    </g>
  </g>
</svg>