<?xml version="1.0" encoding="UTF-8"?>
<svg id="Layer_2" xmlns="http://www.w3.org/2000/svg" viewBox="0 0 46.46 43.13">
  <g id="letters">
    <g id="U_x2B_0076">
      <path id="U_x2B_0076-2" data-name="U_x2B_0076" d="M46.33.84l-18.39,20.3c-.25.28-.39.63-.39,1.01v19.99c0,.55-.45,1-1,1h-6.63c-.55,0-1-.45-1-1v-19.98c0-.37-.14-.73-.39-1.01L.13.84c-.29-.32-.06-.84.37-.84h9.85c.42,0,.83.18,1.11.49l11.4,12.58c.2.22.54.22.74,0L35,.49c.28-.31.69-.49,1.11-.49h9.85c.43,0,.66.51.37.84Z"/>
    </g>
  </g>
</svg>