<?xml version="1.0" encoding="UTF-8"?>
<svg id="letters" xmlns="http://www.w3.org/2000/svg" width="96" height="96" viewBox="0 0 96 96">
  <g id="U_x2B_0045">
    <path d="M79.2735,63.7074l-1.7778,6.8802c-.1711.6621-.7684,1.1247-1.4523,1.1247H19.9567c-.6839,0-1.2812-.4626-1.4523-1.1247l-1.7779-6.8802c-.0818-.3165.1572-.6251.4841-.6251h61.5787c.3269,0,.5659.3086.4841.6251Z"/>
    <path d="M82.2896,52.0149l-1.6862,6.5187c-.1414.5465-.713.879-1.2531.7147-11.6669-3.5501-18.0542-13.2679-21.5281-21.1474-.2409-.5464-.7734-.8985-1.3706-.8985h-16.9032c-.5972,0-1.1297.3521-1.3706.8985-3.4739,7.8795-9.8611,17.5973-21.5281,21.1474-.54.1643-1.1117-.1682-1.2531-.7147l-1.6863-6.5187c-.1238-.4787.1267-.9662.5796-1.1648,10.9091-4.7838,16.5797-16.6481,18.2803-21.2842.2161-.5892.7759-.9736,1.4036-.9736h28.0525c.6276,0,1.1874.3844,1.4036.9736,1.7006,4.6361,7.3712,16.5004,18.2802,21.2842.4528.1986.7034.686.5796,1.1648Z"/>
  </g>
</svg>