<?xml version="1.0" encoding="UTF-8"?>
<svg id="letters" xmlns="http://www.w3.org/2000/svg" width="96" height="96" viewBox="0 0 96 96">
  <path id="U_x2B_0079" d="M78.692,29.3423l-24.034,41.63c-.2679.4641-.7631.75-1.2991.75h-10.7179c-.5359,0-1.0311-.2859-1.2991-.75L17.308,29.3423c-.1924-.3333.0481-.75.433-.75h23.168c.5359,0,1.0311.2859,1.299.75l9.0939,15.75c.1925.3333-.0481.75-.433.75h-8.2282c-.5357,0-1.0308-.2857-1.2988-.7496l-6.6039-11.4307c-.268-.4639-.7631-.7496-1.2988-.7496h-3.248c-.3849,0-.6255.4168-.433.7501l17.8136,30.84c.1925.3333.6736.3332.866-.0001l20.2941-35.1598c.2679-.4642.7632-.7502,1.2991-.7502h8.2279c.3849,0,.6255.4167.433.75Z"/>
</svg>