<?xml version="1.0" encoding="UTF-8"?>
<svg id="letters" xmlns="http://www.w3.org/2000/svg" width="96" height="96" viewBox="0 0 96 96">
  <path id="U_x2B_0054" d="M78.19,70.7214V29.5924c-.0001-.5523-.4478-1-1.0001-1H18.81c-.5523-.0001-1,.4476-1,.9999l.0005,41.1292c0,.5523.4477,1,1,1h58.3795c.5523,0,1-.4478,1-1.0001ZM26.4361,62.0949v-6.6262c0-.5523.4477-1,1-1h23.8767c.5523,0,1-.4478,1-1.0001v-6.6257c0-.5523-.4477-1-1-1h-23.8768c-.5523,0-1-.4477-1-.9999v-6.6252c0-.5523.4477-1,1-1h41.1282c.5523,0,1,.4477,1,.9999v23.8771c0,.5523-.4477,1-.9999,1H27.4361c-.5523,0-1-.4477-1-.9999Z"/>
</svg>