<?xml version="1.0" encoding="UTF-8"?>
<svg id="letters" xmlns="http://www.w3.org/2000/svg" width="96" height="96" viewBox="0 0 96 96">
  <path id="U_x2B_004B" d="M71.5033,29.5923v41.13c0,.5523-.4477,1-1,1h-6.62c-.5523,0-1-.4477-1-1v-15.25c0-.5523-.4477-1-1-1h-15.1472c-.5015,0-.9699.2507-1.2481.6679l-10.6094,15.9141c-.2782.4173-.7465.6679-1.2481.6679h-8.633c-.3993,0-.6375-.445-.416-.7773l16.2866-24.4346c.2782-.4174.7466-.6681,1.2481-.6681h19.767c.5523,0,1-.4477,1-1v-15.25c0-.5523.4477-1,1-1h6.62c.5523,0,1,.4477,1,1Z"/>
</svg>