<?xml version="1.0" encoding="UTF-8"?>
<svg id="numbers" xmlns="http://www.w3.org/2000/svg" width="96" height="96" viewBox="0 0 96 96">
  <g id="U_x2B_0032">
    <rect x="27.5139" y="63.0949" width="40.9721" height="8.6256" rx="1" ry="1"/>
    <path d="M68.486,30.2758v-.6835c0-.5523-.4477-1-1-1H28.5139c-.5523,0-1,.4478-1,1.0001v6.6257c0,.5523.4478,1,1.0001,1h30.3464c.5523-.0001,1,.4476,1,.9999v4.4693c0,.5523-.4477,1-1,1h-30.3465c-.5523.0001-1,.4478-1,1.0001v6.6256c0,.5523.4478,1,1,1h38.9721c.5523,0,1-.4478,1-1.0001v-21.0371s0,0,0,0Z"/>
  </g>
</svg>