<?xml version="1.0" encoding="UTF-8"?>
<svg id="letters" xmlns="http://www.w3.org/2000/svg" width="96" height="96" viewBox="0 0 96 96">
  <path id="U_x2B_0070" d="M69.3256,29.6123v41.1c0,.5523-.4477,1-1,1h-34.786c-.5401,0-1.0424-.2865-1.3047-.7587-1.2505-2.2509-2.5766-5.0561-3.5893-7.8613-.79-2.16-1.4-4.33-1.65-6.26-1.1925-9.041.8632-18.9418,7.3714-27.6388.2838-.3793.7376-.6012,1.2113-.6012h13.3372c.5523,0,1,.4477,1,1v10.94c0,.5523-.4477,1-1,1h-6.63c-.5523,0-1-.4477-1-1v-2.31c0-.5523-.4477-1-1-1h-.9406c-.6103,0-1.1703.3673-1.3963.9342-2.4731,6.2032-3.1328,12.6299-2.333,18.6758.2113,1.6312.6797,3.4338,1.2966,5.2569.2041.6032.7795,1.0031,1.4164,1.0031h21.3669c.5523,0,1-.4477,1-1V29.6123c0-.5523.4477-1,1-1h6.63c.5523,0,1,.4477,1,1Z"/>
</svg>