<?xml version="1.0" encoding="UTF-8"?>
<svg id="letters" xmlns="http://www.w3.org/2000/svg" width="96" height="96" viewBox="0 0 96 96">
  <path id="U_x2B_0075" d="M17.8101,29.5923v41.1282c0,.5523.4477,1,1,1h58.3799c.5523,0,1-.4477,1-1V29.5923c0-.5523-.4477-1-1-1h-24.2558c-.3978,0-.7794.158-1.0607.4393l-15.9585,15.9584c-.315.315-.0919.8536.3536.8536h10.3804c.398,0,.7797-.1582,1.061-.4397l7.726-7.7312c.2813-.2815.663-.4397,1.061-.4397h12.0878c.5526,0,1.0005.4482,1,1.0008l-.0202,23.8565c-.0005.552-.448.9992-1,.9992H27.4466c-.5522,0-.9998-.4475-1-.9997l-.0105-32.4978c-.0002-.5522-.4478-.9997-1-.9997h-6.626c-.5523,0-1,.4477-1,1Z"/>
</svg>