<?xml version="1.0" encoding="UTF-8"?>
<svg id="letters" xmlns="http://www.w3.org/2000/svg" width="96" height="96" viewBox="0 0 96 96">
  <g id="U_x2B_0073">
    <rect x="16.4202" y="56.6526" width="37.8984" height="8.6256" rx="1" ry="1" transform="translate(23.9509 -8.5859) rotate(20.7971)"/>
    <path d="M79.5868,29.5923v41.1201c0,.5523-.4477,1-1,1h-9.1587c-.3978,0-.7792-.158-1.0605-.4392L26.5307,29.4459c-.315-.315-.092-.8536.3535-.8536h10.3715c.3977,0,.7792.158,1.0605.4392l31.7871,31.7776c.315.3149.8535.0918.8535-.3536v-30.8632c0-.5523.4477-1,1-1h6.63c.5523,0,1,.4477,1,1Z"/>
  </g>
</svg>