<?xml version="1.0" encoding="UTF-8"?>
<svg id="letters" xmlns="http://www.w3.org/2000/svg" width="96" height="96" viewBox="0 0 96 96">
  <path id="U_x2B_0041" d="M78.19,29.5923v41.13c0,.5523-.4477,1-1,1H18.81c-.5523,0-1-.4477-1-1v-15.25c0-.5523.4477-1,1-1h6.63c.5523,0,1,.4477,1,1v6.63c0,.5523.4477,1,1,1h41.12c.5523,0,1-.4477,1-1v-6.63c0-.5523-.4477-1-1-1h-23.87c-.5523,0-1-.4477-1-1v-6.63c0-.5523.4477-1,1-1h23.87c.5523,0,1-.4477,1-1v-6.62c0-.5523-.4477-1-1-1H27.44c-.5523,0-1,.4477-1,1v6.62c0,.5523-.4477,1-1,1h-6.63c-.5523,0-1-.4477-1-1v-15.25c0-.5523.4477-1,1-1h58.38c.5523,0,1,.4477,1,1Z"/>
</svg>