<?xml version="1.0" encoding="UTF-8"?>
<svg id="letters" xmlns="http://www.w3.org/2000/svg" width="96" height="96" viewBox="0 0 96 96">
  <path id="U_x2B_0066" d="M80.37,36.2776v-6.8947c0-.3745-.3935-.611-.7257-.4382-8.2712,4.3022-17.4127,7.141-26.1463,9.0228-.6227.1342-1.208-.3463-1.208-.9834v-7.3919c0-.5523-.4477-1-1-1h-6.63c-.5523,0-1,.4477-1,1v9.2713c0,.4983-.3714.9238-.8647.9937-12.6395,1.7926-22.9701,1.7446-26.1515,1.6749-.5605-.0123-1.0138.4391-1.0138.9997v28.1903c0,.5523.4477,1,1,1h62.74c.5523,0,1-.4477,1-1v-6.63c0-.5523-.4477-1-1-1h-26.08c-.5523,0-1-.4477-1-1v-14.4416c0-.4715.3268-.8751.7882-.9726,8.8306-1.8663,18.1005-4.7224,26.4823-9.0607.4988-.2582.8094-.7781.8094-1.3398ZM42.66,63.0923h-17.4c-.5523,0-1-.4477-1-1v-11.037c0-.5376.4197-.977.9569-.9982,4.6394-.1831,10.6389-.6052,17.3-1.5318.6018-.0837,1.1432.3765,1.1432.9841,0,2.801,0,9.9519,0,12.5876,0,.5523-.4477.9952-1,.9952Z"/>
</svg>