<?xml version="1.0" encoding="UTF-8"?>
<svg id="numbers" xmlns="http://www.w3.org/2000/svg" width="96" height="96" viewBox="0 0 96 96">
  <g id="U_x2B_0035">
    <path d="M68.4864,70.7209l-.0007-21.721c0-.5523-.4477-1-1-1H28.5136c-.5523,0-1,.4478-1,1.0001v6.6257c0,.5523.4477,1,1,1h30.347c.5523-.0001,1,.4476,1,.9999v4.4691c0,.5523-.4477,1-1,1h-30.3471c-.5523,0-1,.4478-1,1.0001v6.6257c0,.5523.4477,1,1,1l38.9727.0006c.5523,0,1-.4477,1-1Z"/>
    <rect x="27.5136" y="28.5923" width="40.9721" height="8.6256" rx="1" ry="1"/>
  </g>
</svg>