<?xml version="1.0" encoding="UTF-8"?>
<svg id="numbers" xmlns="http://www.w3.org/2000/svg" width="96" height="96" viewBox="0 0 96 96">
  <g id="U_x2B_0039">
    <rect x="26.4356" y="63.0947" width="43.1285" height="8.6256" rx="1" ry="1"/>
    <path d="M69.5644,55.626l-.0003-26.0337c0-.5523-.4477-1-1-1H27.4356c-.5523,0-1,.4478-1,1.0001v26.0333c.0001.5523.4478,1,1.0001,1l41.1288.0003c.5523,0,1-.4477,1-1ZM35.0613,46.9999v-8.7819c0-.5523.4477-1,1-1h23.8775c.5523-.0001,1,.4476,1,.9999v8.7819c0,.5523-.4477,1-1,1h-23.8775c-.5523.0001-1-.4476-1-.9999Z"/>
  </g>
</svg>