<?xml version="1.0" encoding="UTF-8"?>
<svg id="letters" xmlns="http://www.w3.org/2000/svg" width="96" height="96" viewBox="0 0 96 96">
  <path id="U_x2B_0078" d="M52.5088,28.5923h-9.0082c-.5464,0-1.0497.2972-1.3135.7757l-20.5891,37.338c-.2668.4839-.0906,1.0924.3934,1.3589l6.3055,3.4714c.2216.122.4705.186.7234.186h37.9684c.2532,0,.5024-.0641.7242-.1864l6.2962-3.4709c.4836-.2666.6596-.8748.393-1.3584l-20.5797-37.3383c-.2638-.4787-.7671-.7759-1.3137-.7759ZM33.8437,62.3609l13.7233-24.8847c.1901-.3447.6856-.3447.8757,0l13.7232,24.8847c.1838.3332-.0573.7415-.4378.7415h-27.4465c-.3806,0-.6216-.4082-.4378-.7415Z"/>
</svg>