<?xml version="1.0" encoding="UTF-8"?>
<svg id="punctuation" xmlns="http://www.w3.org/2000/svg" width="96" height="96" viewBox="0 0 96 96">
  <path id="U_x2B_002F" d="M56.6295,29.5923v15.3624c0,.4251-.1804.8303-.4964,1.1148l-7.6373,6.876c-.316.2845-.4964.6896-.4964,1.1148v16.662c0,.5523-.4477,1-1,1h-6.6287c-.5527,0-1.0007-.4482-1.0004-1.0009l.0089-15.3722c.0002-.4249.1807-.8297.4964-1.114l7.6273-6.8662c.316-.2845.4964-.6897.4964-1.1148v-16.6619c0-.5523.4477-1,1-1h6.63c.5523,0,1,.4477,1,1Z"/>
</svg>