<?xml version="1.0" encoding="UTF-8"?>
<svg id="numbers" xmlns="http://www.w3.org/2000/svg" width="96" height="96" viewBox="0 0 96 96">
  <g id="U_x2B_0033">
    <rect x="26.4452" y="45.8243" width="28.0337" height="8.6256" rx="1" ry="1"/>
    <path d="M69.5548,70.7014l-.0002-41.109c0-.5523-.4477-1-1-1l-41.1091-.0002c-.5523,0-1,.4477-1,1v6.6257c0,.5523.4478,1,1.0001,1h32.4835c.5523-.0001,1,.4476,1,.9999v23.858c.0001.5523-.4476,1-.9999,1H27.4455c-.5523,0-1,.4478-1,1.0001v6.6257c0,.5523.4478,1,1,1h41.1093c.5523,0,1-.4478,1-1.0001Z"/>
  </g>
</svg>