<?xml version="1.0" encoding="UTF-8"?>
<svg id="letters" xmlns="http://www.w3.org/2000/svg" width="96" height="96" viewBox="0 0 96 96">
  <path id="U_x2B_0067" d="M16.9043,29.5923v41.1282c0,.5523.4477,1,1,1h36.9287c.547,0,1.0507-.2978,1.3143-.7771l22.8857-41.6101c.1833-.3332-.0578-.741-.4381-.741h-43.4393c-.5523,0-1,.4477-1,1v10.9385c0,.5523.4477,1,1,1h6.6257c.5523,0,1-.4477,1-1v-2.3128c0-.5523.4477-1,1-1h19.3697c.7605,0,1.2427.8152.8764,1.4817l-12.9809,23.6178c-.2636.4795-.7673.7775-1.3145.7775h-23.2019c-.5523,0-1-.4477-1-1V29.5923c0-.5523-.4477-1-1-1h-6.6257c-.5523,0-1,.4477-1,1Z"/>
</svg>