<?xml version="1.0" encoding="UTF-8"?>
<svg id="numbers" xmlns="http://www.w3.org/2000/svg" width="96" height="96" viewBox="0 0 96 96">
  <g id="U_x2B_0036">
    <path d="M69.5645,70.721v-26.0338c-.0001-.5523-.4478-1-1.0001-1H27.4355c-.5523,0-1,.4477-1,1v26.0338c.0001.5523.4478,1,1.0001,1h41.1288c.5523,0,1-.4477,1-1ZM35.0612,62.0951v-8.7822c0-.5523.4477-1,1-1h23.8775c.5523-.0001,1,.4476,1,.9999v8.7822c0,.5523-.4477,1-1,1h-23.8775c-.5523.0001-1-.4476-1-.9999Z"/>
    <rect x="26.4356" y="28.5923" width="43" height="8.6256" rx="1" ry="1"/>
  </g>
</svg>