<?xml version="1.0" encoding="UTF-8"?>
<svg id="letters" xmlns="http://www.w3.org/2000/svg" width="96" height="96" viewBox="0 0 96 96">
  <path id="U_x2B_006E" d="M78.7071,71.7161l-8.1139.0032c-.5472.0002-1.0511-.2976-1.3148-.777l-16.9278-30.7702c-.19-.3453-.6862-.3453-.8762,0l-16.9245,30.7666c-.2636.4793-.7673.777-1.3143.777h-7.1479c-.4074,0-.7923-.1589-1.0751-.4521-2.4805-2.5718-8.2202-9.7919-8.2202-21.1079,0-12.78,6.4387-19.5446,8.2188-21.1706.2771-.2531.6339-.3894,1.0092-.3894h6.814c.4459,0,.6725.5344.3566.8491-2.237,2.2284-7.7286,8.9014-7.7286,20.7109,0,5.38,1.143,9.7005,2.5984,13.0146.1682.383.6979.4129.8995.0464l18.0321-32.7911.5809-1.0567c.2636-.4796.7676-.7775,1.3149-.7774l6.0549.0015c.5468.0001,1.0501.2978,1.3138.7768l.5756,1.0459,22.3126,40.5593c.1833.3332-.0577.7409-.4379.741Z"/>
</svg>