<?xml version="1.0" encoding="UTF-8"?>
<svg id="punctuation" xmlns="http://www.w3.org/2000/svg" width="96" height="96" viewBox="0 0 96 96">
  <path id="U_x2B_003F" d="M58.8248,50.1605c0,12.78-6.4387,19.5446-8.2188,21.1706-.2771.2531-.6339.3894-1.0092.3894h-6.8139c-.4459,0-.6725-.5344-.3566-.8491,2.237-2.2284,7.7286-8.9014,7.7286-20.7109,0-5.3996-1.1513-9.7318-2.6143-13.0506-.2378-.5395-.7847-.8763-1.3743-.8715l-.3614.003v12.9145c0,.5523-.4477,1-1,1h-6.6295c-.5525,0-1.0003-.448-1-1.0005l.0091-19.5646c.0003-.5524.4484-1,1.0008-.9995l11.3451.0087c.407.0003.7914.1592,1.074.4521,2.4803,2.5714,8.2207,9.7917,8.2207,21.1084Z"/>
</svg>