<?xml version="1.0" encoding="UTF-8"?>
<svg id="letters" xmlns="http://www.w3.org/2000/svg" width="96" height="96" viewBox="0 0 96 96">
  <path id="U_x2B_006D" d="M68.9701,58.4606l-5.7979-3.1869c-.4837-.2659-1.0914-.0895-1.3577.394l-3.6605,6.6481c-.2637.479-.7672.7765-1.314.7765h-15.2381c-.3803,0-.6214-.4077-.4381-.7409l13.3953-24.3618c.2636-.4794.7673-.7773,1.3144-.7773h8.113c.5523,0,1-.4477,1-1v-6.62c0-.5523-.4477-1-1-1h-13.2132c-.547,0-1.0506.2978-1.3143.777l-22.8849,41.602c-.1833.3332.0578.741.4381.741h34.9271c.5471,0,1.0509-.2979,1.3145-.7774l6.1109-11.1163c.2661-.484.0894-1.092-.3946-1.3581Z"/>
</svg>