<?xml version="1.0" encoding="UTF-8"?>
<svg id="letters" xmlns="http://www.w3.org/2000/svg" width="96" height="96" viewBox="0 0 96 96">
  <path id="U_x2B_004E" d="M74.8047,29.5923v41.13c0,.5523-.4477,1-1,1h-6.62c-.5523,0-1-.4477-1-1v-32.5c0-.5523-.4477-1-1-1h-16.8642c-.5727,0-1.0954.3261-1.3472.8404l-16.0671,32.8191c-.2518.5144-.7745.8404-1.3472.8404h-7.8629c-.3698,0-.6117-.3876-.4491-.7197l16.1756-33.0605c.1625-.3322-.0793-.7197-.4491-.7197h-8.6087c-.5523,0-1-.4477-1-1v-6.63c0-.5523.4477-1,1-1h45.44c.5523,0,1,.4477,1,1Z"/>
</svg>