<?xml version="1.0" encoding="UTF-8"?>
<svg id="letters" xmlns="http://www.w3.org/2000/svg" width="96" height="96" viewBox="0 0 96 96">
  <path id="U_x2B_0071" d="M76.0335,44.8436v-15.2513c0-.5523-.4477-1-1-1H20.9665c-.5523,0-1,.4477-1,1v41.1282c0,.5523.4477,1,1,1h28.5686c.3978,0,.7794-.158,1.0607-.4393l7.3328-7.3328c.315-.315.0919-.8536-.3536-.8536h-27.9828c-.5523,0-1-.4477-1-1v-23.8769c0-.5523.4477-1,1-1h36.8157c.5523,0,1,.4477,1,1v6.6256c0,.5523.4477,1,1,1h6.6257c.5523,0,1-.4477,1-1Z"/>
</svg>