<?xml version="1.0" encoding="UTF-8"?>
<svg id="numbers" xmlns="http://www.w3.org/2000/svg" width="96" height="96" viewBox="0 0 96 96">
  <path id="U_x2B_0034" d="M61.9384,71.7202h6.6257c.5523,0,1-.4477,1-1V29.5919c-.0001-.5523-.4478-1-1.0001-1h-6.6256c-.5523,0-1,.4477-1,1v15.2511c0,.5523-.4477,1-1,1h-23.8768c-.5523.0001-1-.4476-1-.9999v-15.2509c0-.5523-.4478-1-1.0001-1h-6.6256c-.5523,0-1,.4477-1,1v23.8765c.0001.5523.4478,1,1.0001,1h32.5024c.5523,0,1,.4477,1,.9999v15.2515c0,.5523.4477,1,1,1Z"/>
</svg>