<?xml version="1.0" encoding="UTF-8"?>
<svg id="numbers" xmlns="http://www.w3.org/2000/svg" width="96" height="96" viewBox="0 0 96 96">
  <g id="U_x2B_0030">
    <rect x="43.6873" y="45.8437" width="8.6257" height="8.6256" rx="1" ry="1"/>
    <path d="M69.5642,29.5923c0-.5523-.4477-1-1-1H27.4358c-.5523.0001-1,.4478-1,1.0001l.0002,41.1283c0,.5523.4477,1,1,1h41.1282c.5523-.0001,1-.4478,1-1.0001V29.5923ZM59.9386,63.0949h-23.877c-.5523,0-1-.4477-1-.9999v-23.877c0-.5523.4477-1,.9999-1h23.877c.5523,0,1,.4477,1,.9999v23.877c.0001.5523-.4476,1-.9999,1Z"/>
  </g>
</svg>