<?xml version="1.0" encoding="UTF-8"?>
<svg id="letters" xmlns="http://www.w3.org/2000/svg" width="96" height="96" viewBox="0 0 96 96">
  <path id="U_x2B_006F" d="M63.4931,29.4912c-.2388-.546-.7783-.8989-1.3743-.8989h-28.2377c-.596,0-1.1355.3528-1.3743.8989l-14.4143,32.9552c-.179.4092-.1663.8768.0345,1.2757l3.6074,7.1648c.2548.5061.7731.8254,1.3398.8254h49.8516c.5667,0,1.0849-.3193,1.3398-.8254l3.6074-7.1648c.2008-.3989.2135-.8665.0345-1.2757l-14.4143-32.9552ZM27.5267,62.3918l10.6302-24.2811c.2389-.5458.7783-.8984,1.3741-.8984h16.938c.596,0,1.1354.3528,1.3743.8989l10.6204,24.2807c.1445.3303-.0975.7004-.4581.7004H27.9847c-.3606,0-.6027-.3702-.458-.7005Z"/>
</svg>