<?xml version="1.0" encoding="UTF-8"?>
<svg id="letters" xmlns="http://www.w3.org/2000/svg" width="96" height="96" viewBox="0 0 96 96">
  <g id="U_x2B_0061">
    <path d="M14.1882,69.7205v-15.2513c0-.5523.4477-1,1-1h37.4173c.261,0,.5176.0681.7442.1976l28.2094,16.1195c.4452.2544.2647.9341-.2481.9341h-15.1054c-.261,0-.5176-.0681-.7442-.1976l-14.4033-8.2304c-.2266-.1295-.4832-.1976-.7442-.1976h-26.5001c-.5523,0-1,.4477-1,1v6.6256c0,.5523-.4477,1-1,1h-6.6257c-.5523,0-1-.4477-1-1Z"/>
    <path d="M14.1882,28.5923v15.2513c0,.5523.4477,1,1,1h37.4173c.261,0,.5176-.0681.7442-.1976l28.2094-16.1195c.4452-.2544.2647-.9341-.2481-.9341h-15.1054c-.261,0-.5176.0681-.7442.1976l-14.4033,8.2304c-.2266.1295-.4832.1976-.7442.1976h-26.5001c-.5523,0-1-.4477-1-1v-6.6256c0-.5523-.4477-1-1-1h-6.6257c-.5523,0-1,.4477-1,1Z"/>
  </g>
</svg>