<?xml version="1.0" encoding="UTF-8"?>
<svg id="letters" xmlns="http://www.w3.org/2000/svg" width="96" height="96" viewBox="0 0 96 96">
  <path id="U_x2B_007A" d="M74.955,29.5923v41.13c0,.5523-.4477,1-1,1H22.045c-.5523,0-1-.4477-1-1v-10.94c0-.5523.4477-1,1-1h6.62c.5523,0,1,.4477,1,1v2.31c0,.5523.4477,1,1,1h34.66c.5523,0,1-.4477,1-1v-15.16c0-.5523-.4477-1-1-1h-18.6093c-.3974,0-.7786.1577-1.0598.4385l-5.5116,5.503c-.2812.2808-.6624.4385-1.0598.4385h-10.3717c-.4455,0-.6686-.5388-.3534-.8537l13.7264-13.717c.2813-.2813.6629-.4394,1.0607-.4394h22.1786c.5523,0,1-.4477,1-1v-6.71c0-.5523.4477-1,1-1h6.63c.5523,0,1,.4477,1,1Z"/>
</svg>