<?xml version="1.0" encoding="UTF-8"?>
<svg id="letters" xmlns="http://www.w3.org/2000/svg" width="96" height="96" viewBox="0 0 96 96">
  <g id="U_x2B_004F">
    <path d="M51.2346,36.218v-6.6257c0-.5523.4477-1,1-1h15.2514c.5523,0,1,.4477,1,1v41.1281c0,.5523-.4477,1-1,1h-15.2514c-.5523,0-1-.4477-1-1v-6.6256c0-.5523.4477-1,1-1h6.6254c.5523,0,1-.4477,1-1v-23.8768c.0001-.5523-.4476-1-.9999-1h-6.6255c-.5523,0-1-.4477-1-1Z"/>
    <path d="M44.7654,36.218v-6.6257c0-.5523-.4477-1-1-1h-15.2514c-.5523,0-1,.4477-1,1v41.1281c0,.5523.4477,1,1,1h15.2514c.5523,0,1-.4477,1-1v-6.6256c0-.5523-.4477-1-1-1h-6.6254c-.5523,0-1-.4477-1-1v-23.8768c-.0001-.5523.4476-1,.9999-1h6.6255c.5523,0,1-.4477,1-1Z"/>
  </g>
</svg>