<?xml version="1.0" encoding="UTF-8"?>
<svg id="letters" xmlns="http://www.w3.org/2000/svg" width="96" height="96" viewBox="0 0 96 96">
  <path id="U_x2B_0074" d="M67.3499,50.5816l-14.1771,14.1771c-.315.315-.8536.0919-.8536-.3536V29.5923c0-.5523-.4477-1-1-1h-6.6301c-.5522,0-.9999.4476-1,.9999l-.0047,34.8136c0,.4454-.5385.6684-.8535.3535l-14.1824-14.1778c-.2813-.2812-.6627-.4392-1.0605-.4392h-10.3701c-.4457,0-.6687.539-.3532.8539l20.3057,20.2681c.281.2805.6619.4382,1.059.4384l19.5682.0094c.3981.0002.7799-.1579,1.0614-.4393l20.2768-20.2768c.315-.315.0919-.8536-.3536-.8536h-10.3716c-.3978,0-.7794.158-1.0607.4393Z"/>
</svg>