<?xml version="1.0" encoding="UTF-8"?>
<svg id="letters" xmlns="http://www.w3.org/2000/svg" width="96" height="96" viewBox="0 0 96 96">
  <path id="U_x2B_006A" d="M69.6854,28.5923c-.5101,0-.9744.2662-1.2566.6911-9.4184,14.1803-37.5641,16.3918-48.3217,16.5689h-1.16c-.5523,0-1,.4477-1,1v6.62c0,.5523.4477,1,1,1h1.16v-.02c4.8425.0098,23.5921-.3236,38.7067-5.5602.4149-.1437.796.2704.6157.6708l-5.6943,12.6453c-.2423.5381-.7776.8841-1.3677.8841H18.9471c-.5523,0-1,.4477-1,1v6.6c0,.5523.4477,1,1,1h38.9327c.5889,0,1.1234-.3446,1.3664-.8811l13.3109-29.3889,4.45-9.91,1.0009-2.2141c.1496-.331-.0924-.706-.4556-.706h-7.867Z"/>
</svg>