<?xml version="1.0" encoding="UTF-8"?>
<svg id="numbers" xmlns="http://www.w3.org/2000/svg" width="96" height="96" viewBox="0 0 96 96">
  <path id="U_x2B_0038" d="M68.5642,28.5925l-41.1285-.0003c-.5523,0-1,.4477-1,1v41.1284c.0001.5523.4478,1,1.0001,1h41.1284c.5523,0,1-.4478,1-1.0001V29.5925c0-.5523-.4478-1-1.0001-1ZM60.9385,38.2181v6.5762c0,.5523-.4477,1-1,1h-23.8772c-.5523,0-1-.4477-1-.9999v-6.5761c0-.5523.4477-1,.9999-1h23.8772c.5523-.0001,1,.4476,1,.9999ZM59.9387,63.0949h-23.8772c-.5523.0001-1-.4476-1-.9999v-6.675c0-.5523.4477-1,.9999-1h23.8772c.5523-.0001,1,.4476,1,.9999v6.675c0,.5523-.4477,1-.9999,1Z"/>
</svg>