<?xml version="1.0" encoding="UTF-8"?>
<svg id="letters" xmlns="http://www.w3.org/2000/svg" width="96" height="96" viewBox="0 0 96 96">
  <path id="U_x2B_0065" d="M17.3873,28.5053h7.9066c.5681,0,1.0875.321,1.3416.8291l15.3715,30.7406c.1843.3685.7102.3685.8944,0l15.3269-30.6535c.2541-.5082.7735-.8292,1.3416-.8292h18.5435c.5523,0,1,.4477,1,1v6.5363c0,.5523-.4477,1-1,1h-2.3129c-.5523,0-1,.4477-1,1v32.5026c0,.5523-.4477,1-1,1h-6.6257c-.5523,0-1-.4477-1-1v-33.0174c0-.2761-.2239-.5-.5-.5h-.7292c-.5682,0-1.0877.3211-1.3418.8294l-16.4223,32.8586c-.254.5083-.7735.8294-1.3418.8294h-6.7714c-.5682,0-1.0876-.321-1.3416-.8292L16.94,29.2289c-.1662-.3325.0755-.7236.4472-.7236Z"/>
</svg>