<?xml version="1.0" encoding="UTF-8"?>
<svg id="letters" xmlns="http://www.w3.org/2000/svg" width="96" height="96" viewBox="0 0 96 96">
  <path id="U_x2B_0076" d="M71.0977,29.4281l-18.394,20.2955c-.2501.2759-.3886.635-.3886,1.0073v19.9914c0,.5523-.4477,1-1,1h-6.63c-.5523,0-1-.4477-1-1v-19.9816c0-.3722-.1384-.7312-.3883-1.0071l-18.3946-20.3057c-.2911-.3214-.0631-.8357.3706-.8357h9.8476c.4234,0,.827.1789,1.1113.4926l11.4029,12.5787c.1985.219.5426.2189.741-.0002l11.393-12.5781c.2844-.3139.6882-.493,1.1117-.493h9.8469c.4337,0,.6617.5144.3705.8358Z"/>
</svg>