<?xml version="1.0" encoding="UTF-8"?>
<svg id="letters" xmlns="http://www.w3.org/2000/svg" width="96" height="96" viewBox="0 0 96 96">
  <g id="U_x2B_0062">
    <path d="M14.3508,59.6356l11.6457,11.6456c.2813.2813.6628.4393,1.0607.4393h41.8859c.3978,0,.7794-.158,1.0607-.4393l11.6457-11.6456c.315-.315.0919-.8536-.3536-.8536h-11.1101c-.3978,0-.7794.158-1.0607.4393l-3.4342,3.4341c-.2813.2813-.6628.4393-1.0607.4393H31.3699c-.3978,0-.7794-.158-1.0607-.4393l-3.4342-3.4341c-.2813-.2813-.6628-.4393-1.0607-.4393h-11.1101c-.4455,0-.6685.5386-.3536.8536Z"/>
    <rect x="35.0614" y="45.8436" width="25.8771" height="8.6256" rx="1" ry="1"/>
    <path d="M14.3508,40.6772l11.6457-11.6456c.2813-.2813.6628-.4393,1.0607-.4393h41.8859c.3978,0,.7794.158,1.0607.4393l11.6457,11.6456c.315.315.0919.8536-.3536.8536h-11.1101c-.3978,0-.7794-.158-1.0607-.4393l-3.4342-3.4341c-.2813-.2813-.6628-.4393-1.0607-.4393H31.3699c-.3978,0-.7794.158-1.0607.4393l-3.4342,3.4341c-.2813.2813-.6628.4393-1.0607.4393h-11.1101c-.4455,0-.6685-.5386-.3536-.8536Z"/>
  </g>
</svg>