<?xml version="1.0" encoding="UTF-8"?>
<svg id="punctuation" xmlns="http://www.w3.org/2000/svg" width="96" height="96" viewBox="0 0 96 96">
  <g id="U_x2B_0021">
    <path d="M53.6492,48.6829l-11.5787,9.6489c-.342.285-.5397.7072-.5397,1.1523v6.8556c0,.4239.4944.6555.8201.3841l11.5787-9.6489c.342-.285.5397-.7072.5397-1.1523v-6.8556c0-.4239-.4944-.6555-.8201-.3841Z"/>
    <path d="M53.6492,33.588l-11.5787,9.6489c-.342.285-.5397.7072-.5397,1.1523v6.8556c0,.4239.4944.6555.8201.3841l11.5787-9.6489c.342-.285.5397-.7072.5397-1.1523v-6.8556c0-.4239-.4944-.6555-.8201-.3841Z"/>
  </g>
</svg>