<?xml version="1.0" encoding="UTF-8"?>
<svg id="numbers" xmlns="http://www.w3.org/2000/svg" width="96" height="96" viewBox="0 0 96 96">
  <path id="U_x2B_0031" d="M68.486,70.7206v-6.6257c0-.5523-.4478-1-1.0001-1h-13.0947c-.5523,0-1-.4477-1-.9999V28.5925h-.0002v-.0002h-24.8771c-.5523,0-1,.4478-1,1.0001v6.6257c0,.5523.4477,1,1,1h15.2516c.5523,0,1,.4477,1,.9999v23.877c0,.5523-.4477,1-.9999,1h-15.2517c-.5523,0-1,.4478-1,1.0001v6.6257c0,.5523.4477,1,1,1h16.2516s0,0,0,0h8.6257s14.0948-.0002,14.0948-.0002c.5523,0,1-.4477,1-1Z"/>
</svg>