<?xml version="1.0" encoding="UTF-8"?>
<svg id="letters" xmlns="http://www.w3.org/2000/svg" width="96" height="96" viewBox="0 0 96 96">
  <path id="U_x2B_0064" d="M39.7606,71.192l35.5097-41.7759c.276-.3247.0452-.8238-.381-.8238H29.1506c-.3978,0-.7794.158-1.0607.4393l-7.3328,7.3328c-.315.315-.0919.8536.3536.8536h35.126c.4262,0,.657.4991.381.8238l-6.216,7.3129c-.285.3353-.7029.5285-1.1429.5285h-15.7953c-.3978,0-.7794.158-1.0607.4393l-7.313,7.313c-.315.315-.0919.8536.3536.8536h16.1128c.4262,0,.657.4991.381.8238l-13.2464,15.5838c-.276.3247-.0452.8238.381.8238h9.546c.4401,0,.8579-.1932,1.1429-.5285Z"/>
</svg>