<?xml version="1.0" encoding="UTF-8"?>
<svg id="letters" xmlns="http://www.w3.org/2000/svg" width="96" height="96" viewBox="0 0 96 96">
  <g id="U_x2B_0053">
    <path d="M88.7681,29.316l-20.7935,41.5773c-.2541.5081-.7735.8291-1.3416.8291H23.2735c-.5523,0-1-.4477-1-1v-10.94c0-.5523.4477-1,1-1h6.63c.5523,0,1,.4477,1,1v2.32c0,.5523.4477,1,1,1h29.3995c.5682,0,1.0876-.321,1.3416-.8292l12.1636-24.3272c.1662-.3325-.0755-.7236-.4472-.7236H31.9035c-.5523,0-1,.4477-1,1v2.31c0,.5523-.4477,1-1,1h-6.63c-.5523,0-1-.4477-1-1v-10.94c0-.5523.4477-1,1-1h65.0474c.3717,0,.6135.3912.4472.7236Z"/>
    <rect x="7.1785" y="58.7839" width="8.63" height="12.94" rx="1" ry="1"/>
    <rect x="7.1785" y="28.5923" width="8.63" height="12.94" rx="1" ry="1"/>
  </g>
</svg>