<?xml version="1.0" encoding="UTF-8"?>
<svg id="punctuation__x28_extended_x29_" xmlns="http://www.w3.org/2000/svg" width="96" height="96" viewBox="0 0 96 96">
  <path id="U_x2B_20AC" d="M40.7427,36.2174v-6.6226c.0001-.5523-.4476-1-.9999-1h-2.3129c-.5523,0-1,.4477-1,1v6.6226c-.0001.5523-.4478,1-1.0001,1h-2.3128c-.5523,0-1-.4477-1-1v-6.6226c0-.5523-.4477-1-1-1h-2.3129c-.5523,0-1,.4477-1,1v6.6226c-.0001.5523-.4478,1-1.0001,1h-2.3129c-.5523,0-1,.4477-1,1v6.6257c0,.5523.4477,1,1,1h2.3129c.5523,0,1,.4477,1,1v6.6256c0,.5523.4477,1,1,1h2.3128c.5523,0,1-.4477,1-1v-6.6257c.0001-.5523.4478-1,1.0001-1h2.3129c.5523,0,1,.4477,1,1v6.6256c0,.5523.4477,1,1,1h2.3128c.5523,0,1-.4477,1-1v-6.6257c.0001-.5523.4478-1,1.0001-1h11.6124c.4262,0,.657.4991.381.8238l-20.5955,24.2297c-.276.3247-.0452.8238.381.8238h9.5459c.4401,0,.8579-.1932,1.1429-.5285l28.1784-33.1508c.276-.3247.0452-.8238-.381-.8238h-30.2651c-.5523,0-1-.4477-1-1Z"/>
</svg>